# xmcd CD database file
#
# Track frame offsets:
#	150
#	12311
#	34658
#	55325
#	72051
#	85760
#	103226
#	117780
#	139542
#	162505
#	181403
#	201725
#
# Disc length: 2902 seconds
#
# Revision: 0
# Processed by: cddbd v1.5.2PL0 Copyright (c) Steve Scherf et al.
# Submitted via: CDex 1.70beta2
#
DISCID=a60b540c
DTITLE=Barbara Dennerlein - A Tribute To Charlei
DYEAR=1987
DGENRE=Jazz
TTITLE0=A Tribute To Charlie
TTITLE1=Donna Lee
TTITLE2=Goodbye Pork Pie Hat
TTITLE3=New Times
TTITLE4=Ornithology
TTITLE5=Billie´s Bounce
TTITLE6=Yardbird Suite
TTITLE7=Solo For Winds
TTITLE8=Four Years For T.
TTITLE9=Scrapple From The Apple
TTITLE10=Dewey Square
TTITLE11=Last Friends
EXTD=YEAR: 1987
EXTT0=
EXTT1=
EXTT2=
EXTT3=
EXTT4=
EXTT5=
EXTT6=
EXTT7=
EXTT8=
EXTT9=
EXTT10=
EXTT11=
PLAYORDER=
